# xmcd
#
# Track frame offsets:
#	182
#	10725
#	21350
#	33075
#	42007
#	54175
#	84390
#	96430
#	106650
#	115180
#	125502
#	138472
#	150847
#	161377
#	172535
#	182500
#	195260
#	204727
#	217587
#	229625
#	243252
#	255930
#
# Disc length: 3642 seconds
# Revision: 0
# Processed by: cddbd v1.5.2PL0 Copyright (c) Steve Scherf et al.
# Submitted via: dBpowerAMP V12.0
#
DISCID=f40e3816
DTITLE=Various Artist - It Will Stand (The Soul of New Orleans Vol. 2)
DYEAR=1960
DGENRE=Soul
TTITLE0=Jessie Hill - Ooh-Poo-Pah-Doo
TTITLE1=Aaron Neville - Over You
TTITLE2=Ernie K-Doe - Mother-In-Law
TTITLE3=Chris Kenner - I Like It Like That
TTITLE4=Ernie K-Doe - Te-Ta-Te-Ta-Ta
TTITLE5=Diamond Joe - Moanin' and Screamin'
TTITLE6=Aaron Neville - Let's Live
TTITLE7=The Showmen - It Will Stand
TTITLE8=The Showmen - Country Fool
TTITLE9=Ernie K-Doe - I Cried My Last Tear
TTITLE10=Chris Kenner - Something You Got
TTITLE11=Raymond Lewis - I'm Gonna Put Some Hurt on You
TTITLE12=Art Neville - All These Things
TTITLE13=Benny Spellman - Lipstick Traces (On a Cigarette)
TTITLE14=Benny Spellman - Fortune Teller
TTITLE15=Eskew Reeder - Green Door
TTITLE16=Irma Thomas - It's Raining
TTITLE17=Chris Kenner - Land of 1000 Dances
TTITLE18=Irma Thomas - Ruler of My Heart
TTITLE19=The Pitter Pats - It Do Me Good
TTITLE20=The Hueys - Coo Coo Over You
TTITLE21=Skip Easterling - I'm Your Hoochie Coochie Man
EXTD=
EXTT0=
EXTT1=
EXTT2=
EXTT3=
EXTT4=
EXTT5=
EXTT6=
EXTT7=
EXTT8=
EXTT9=
EXTT10=
EXTT11=
EXTT12=
EXTT13=
EXTT14=
EXTT15=
EXTT16=
EXTT17=
EXTT18=
EXTT19=
EXTT20=
EXTT21=
PLAYORDER=
